<?xml version="1.0" encoding="UTF-8"?>
<!DOCTYPE svg PUBLIC "-//W3C//DTD SVG 1.1//EN" "http://www.w3.org/Graphics/SVG/1.1/DTD/svg11.dtd">

<svg xmlns="http://www.w3.org/2000/svg" xmlns:xlink="http://www.w3.org/1999/xlink" width="224.1px" height="203px" viewbox="0 0 224.1 203" version="1.1">
  <title>TPS62130_40_50_BUCK_FIX_RGT_A_bottom: null</title>
  <desc>TPS62130_40_50_BUCK_FIX_RGT_A WebTHERM&amp;reg; Board Layout file</desc>
<defs>
  <g id="boardbottom" transform="scale(0.1016,-0.1016) translate(0,-2005.8999999999996)">
      <rect x="0" y="0" width="2205" height="2005" stroke="#006600" stroke-width="0" fill="#006600" type="Fill" layer="PCB" />
      <polygon net="0" points="2153,48 398,48 398,753 1023,753 1023,923 973,923 973,1038 393,1038 393,48 53,48 53,1983 2153,1983" stroke-width="0.0" stroke="#ff9900" fill="#ff9900" stroke-linecap="round" stroke-linejoin="round" opacity="1.0" layer="BOTTOM" />
      <polygon net="0" points="816,1226 807,1224 800,1220 796,1213 794,1205 796,1196 800,1189 807,1185 816,1183 824,1185 830,1189 844,1189 1022,1012 1027,1008 1033,1007 1056,1007 1057,1006 1057,987 1053,981 1051,973 1053,964 1057,957 1064,953 1073,951 1081,953 1088,957 1092,964 1094,973 1092,981 1088,987 1088,1013 1087,1018 1083,1023 1073,1033 1068,1037 1063,1038 1039,1038 861,1215 856,1219 851,1220 830,1220 824,1224" stroke-width="0.0" stroke="#006600" fill="#006600" stroke-linecap="round" stroke-linejoin="round" opacity="1.0" layer="BOTTOM" />
      <polygon net="0" points="2063,846 2049,845 2036,839 2024,831 2016,819 2010,806 2009,793 2010,779 2016,766 2024,754 2036,746 2049,740 2063,739 2076,740 2089,746 2101,754 2109,766 2115,779 2116,793 2115,806 2109,819 2101,831 2089,839 2076,845" stroke-width="0.0" stroke="#006600" fill="#006600" stroke-linecap="round" stroke-linejoin="round" opacity="1.0" layer="BOTTOM" />
      <polygon net="0" points="163,706 149,705 136,699 124,691 116,679 110,666 109,653 110,639 116,626 124,614 136,606 149,600 163,599 176,600 189,606 201,614 209,626 215,639 216,653 215,666 209,679 201,691 189,699 176,705" stroke-width="0.0" stroke="#006600" fill="#006600" stroke-linecap="round" stroke-linejoin="round" opacity="1.0" layer="BOTTOM" />
      <polygon net="0" points="998,619 989,617 982,613 978,606 976,598 978,589 982,582 989,578 998,576 1006,578 1013,582 1017,589 1019,598 1017,606 1013,613 1006,617" stroke-width="0.0" stroke="#006600" fill="#006600" stroke-linecap="round" stroke-linejoin="round" opacity="1.0" layer="BOTTOM" />
      <polygon net="0" points="1098,734 1089,732 1082,728 1078,721 1076,713 1078,704 1082,698 1082,469 1071,464 1059,456 1051,444 1045,431 1044,418 1045,404 1051,391 1059,379 1071,371 1084,365 1098,364 1111,365 1124,371 1136,379 1144,391 1150,404 1151,418 1150,431 1144,444 1136,456 1124,464 1113,469 1113,698 1117,704 1119,713 1117,721 1113,728 1106,732" stroke-width="0.0" stroke="#006600" fill="#006600" stroke-linecap="round" stroke-linejoin="round" opacity="1.0" layer="BOTTOM" />
      <line net="3" x1="1033" y1="1023" x2="1063" y2="1023" stroke-width="10" stroke="#ff9900" stroke-linecap="round" stroke-linejoin="round" opacity="1.0" layer="BOTTOM" />
      <line net="3" x1="851" y1="1205" x2="1033" y2="1023" stroke-width="10" stroke="#ff9900" stroke-linecap="round" stroke-linejoin="round" opacity="1.0" layer="BOTTOM" />
      <line net="0" x1="58" y1="52" x2="58" y2="1568" stroke-width="10" stroke="#ff9900" stroke-linecap="round" stroke-linejoin="round" opacity="1.0" layer="BOTTOM" />
      <line net="0" x1="93" y1="1603" x2="163" y2="1603" stroke-width="10" stroke="#ff9900" stroke-linecap="round" stroke-linejoin="round" opacity="1.0" layer="BOTTOM" />
      <line net="0" x1="58" y1="1568" x2="93" y2="1603" stroke-width="10" stroke="#ff9900" stroke-linecap="round" stroke-linejoin="round" opacity="1.0" layer="BOTTOM" />
      <line net="0" x1="1003" y1="958" x2="1034" y2="927" stroke-width="20" stroke="#ff9900" stroke-linecap="round" stroke-linejoin="round" opacity="1.0" layer="BOTTOM" />
      <line net="3" x1="1073" y1="973" x2="1073" y2="1013" stroke-width="10" stroke="#ff9900" stroke-linecap="round" stroke-linejoin="round" opacity="1.0" layer="BOTTOM" />
      <line net="3" x1="1063" y1="1023" x2="1073" y2="1013" stroke-width="10" stroke="#ff9900" stroke-linecap="round" stroke-linejoin="round" opacity="1.0" layer="BOTTOM" />
      <line net="0" x1="394" y1="753" x2="1158" y2="753" stroke-width="10" stroke="#ff9900" stroke-linecap="round" stroke-linejoin="round" opacity="1.0" layer="BOTTOM" />
      <line net="0" x1="1158" y1="753" x2="1198" y2="713" stroke-width="10" stroke="#ff9900" stroke-linecap="round" stroke-linejoin="round" opacity="1.0" layer="BOTTOM" />
      <line net="0" x1="394" y1="53" x2="394" y2="753" stroke-width="10" stroke="#ff9900" stroke-linecap="round" stroke-linejoin="round" opacity="1.0" layer="BOTTOM" />
      <line net="0" x1="58" y1="52" x2="393" y2="52" stroke-width="10" stroke="#ff9900" stroke-linecap="round" stroke-linejoin="round" opacity="1.0" layer="BOTTOM" />
      <line net="3" x1="816" y1="1205" x2="851" y2="1205" stroke-width="10" stroke="#ff9900" stroke-linecap="round" stroke-linejoin="round" opacity="1.0" layer="BOTTOM" />
      <line net="0" x1="1034" y1="887" x2="1034" y2="927" stroke-width="20" stroke="#ff9900" stroke-linecap="round" stroke-linejoin="round" opacity="1.0" layer="BOTTOM" />
      <line net="0" x1="1034" y1="849" x2="1034" y2="887" stroke-width="20" stroke="#ff9900" stroke-linecap="round" stroke-linejoin="round" opacity="1.0" layer="BOTTOM" />
      <line net="3" x1="1098" y1="418" x2="1098" y2="713" stroke-width="10" stroke="#ff9900" stroke-linecap="round" stroke-linejoin="round" opacity="1.0" layer="BOTTOM" />
      <line net="0" x1="1198" y1="598" x2="1198" y2="713" stroke-width="10" stroke="#ff9900" stroke-linecap="round" stroke-linejoin="round" opacity="1.0" layer="BOTTOM" />
      <circle net="0" cx="1072" cy="887" r="8" r1="11" r2="5" stroke-width="6" stroke="#ff9900" fill="#ffffff" opacity="1" layer="MULTILAYER" />
      <circle net="0" cx="1072" cy="869" r="8" r1="11" r2="5" stroke-width="6" stroke="#ff9900" fill="#ffffff" opacity="1" layer="MULTILAYER" />
      <circle net="0" cx="1003" cy="958" r="8" r1="11" r2="5" stroke-width="6" stroke="#ff9900" fill="#ffffff" opacity="1" layer="MULTILAYER" />
      <circle net="3" cx="1073" cy="973" r="8" r1="11" r2="5" stroke-width="6" stroke="#ff9900" fill="#ffffff" opacity="1" layer="MULTILAYER" />
      <circle net="0" cx="1158" cy="1211" r="8" r1="11" r2="5" stroke-width="6" stroke="#ff9900" fill="#ffffff" opacity="1" layer="MULTILAYER" />
      <circle net="0" cx="1158" cy="1176" r="8" r1="11" r2="5" stroke-width="6" stroke="#ff9900" fill="#ffffff" opacity="1" layer="MULTILAYER" />
      <circle net="0" cx="1218" cy="1176" r="8" r1="11" r2="5" stroke-width="6" stroke="#ff9900" fill="#ffffff" opacity="1" layer="MULTILAYER" />
      <circle net="0" cx="1248" cy="1176" r="8" r1="11" r2="5" stroke-width="6" stroke="#ff9900" fill="#ffffff" opacity="1" layer="MULTILAYER" />
      <circle net="0" cx="1308" cy="1176" r="8" r1="11" r2="5" stroke-width="6" stroke="#ff9900" fill="#ffffff" opacity="1" layer="MULTILAYER" />
      <circle net="0" cx="1338" cy="1176" r="8" r1="11" r2="5" stroke-width="6" stroke="#ff9900" fill="#ffffff" opacity="1" layer="MULTILAYER" />
      <circle net="0" cx="1398" cy="1176" r="8" r1="11" r2="5" stroke-width="6" stroke="#ff9900" fill="#ffffff" opacity="1" layer="MULTILAYER" />
      <circle net="0" cx="1072" cy="849" r="8" r1="11" r2="5" stroke-width="6" stroke="#ff9900" fill="#ffffff" opacity="1" layer="MULTILAYER" />
      <circle net="0" cx="1158" cy="1241" r="8" r1="11" r2="5" stroke-width="6" stroke="#ff9900" fill="#ffffff" opacity="1" layer="MULTILAYER" />
      <circle net="3" cx="816" cy="1205" r="8" r1="11" r2="5" stroke-width="6" stroke="#ff9900" fill="#ffffff" opacity="1" layer="MULTILAYER" />
      <circle net="0" cx="1034" cy="887" r="8" r1="11" r2="5" stroke-width="6" stroke="#ff9900" fill="#ffffff" opacity="1" layer="MULTILAYER" />
      <circle net="0" cx="1053" cy="887" r="8" r1="11" r2="5" stroke-width="6" stroke="#ff9900" fill="#ffffff" opacity="1" layer="MULTILAYER" />
      <circle net="0" cx="1034" cy="869" r="8" r1="11" r2="5" stroke-width="6" stroke="#ff9900" fill="#ffffff" opacity="1" layer="MULTILAYER" />
      <circle net="0" cx="1053" cy="869" r="8" r1="11" r2="5" stroke-width="6" stroke="#ff9900" fill="#ffffff" opacity="1" layer="MULTILAYER" />
      <circle net="0" cx="1188" cy="1176" r="8" r1="11" r2="5" stroke-width="6" stroke="#ff9900" fill="#ffffff" opacity="1" layer="MULTILAYER" />
      <circle net="0" cx="1278" cy="1176" r="8" r1="11" r2="5" stroke-width="6" stroke="#ff9900" fill="#ffffff" opacity="1" layer="MULTILAYER" />
      <circle net="0" cx="1053" cy="849" r="8" r1="11" r2="5" stroke-width="6" stroke="#ff9900" fill="#ffffff" opacity="1" layer="MULTILAYER" />
      <circle net="0" cx="1034" cy="849" r="8" r1="11" r2="5" stroke-width="6" stroke="#ff9900" fill="#ffffff" opacity="1" layer="MULTILAYER" />
      <circle net="3" cx="1098" cy="713" r="8" r1="11" r2="5" stroke-width="6" stroke="#ff9900" fill="#ffffff" opacity="1" layer="MULTILAYER" />
      <circle net="0" cx="1238" cy="598" r="8" r1="11" r2="5" stroke-width="6" stroke="#ff9900" fill="#ffffff" opacity="1" layer="MULTILAYER" />
      <circle net="0" cx="1198" cy="598" r="8" r1="11" r2="5" stroke-width="6" stroke="#ff9900" fill="#ffffff" opacity="1" layer="MULTILAYER" />
      <circle net="3" cx="998" cy="598" r="8" r1="11" r2="5" stroke-width="6" stroke="#ff9900" fill="#ffffff" opacity="1" layer="MULTILAYER" />
      <circle net="0" cx="2063" cy="1123" r="37" r1="43" r2="31" stroke-width="12" stroke="#ff9900" fill="#ffffff" opacity="1" layer="MULTILAYER" />
      <circle net="1" cx="2063" cy="793" r="37" r1="43" r2="31" stroke-width="12" stroke="#ff9900" fill="#ffffff" opacity="1" layer="MULTILAYER" />
      <circle net="0" cx="163" cy="1603" r="37" r1="43" r2="31" stroke-width="12" stroke="#ff9900" fill="#ffffff" opacity="1" layer="MULTILAYER" />
      <circle net="3" cx="163" cy="653" r="37" r1="43" r2="31" stroke-width="12" stroke="#ff9900" fill="#ffffff" opacity="1" layer="MULTILAYER" />
      <circle net="3" cx="1098" cy="418" r="37" r1="43" r2="31" stroke-width="12" stroke="#ff9900" fill="#ffffff" opacity="1" layer="MULTILAYER" />
    </g>

  
  <g id="boardbottomoverlay" transform="scale(0.1016,-0.1016) translate(0,-2005.8999999999996)">
      <circle net="0" cx="1072" cy="887" r="8" r1="11" r2="5" stroke-width="6" stroke="#ff9900" fill="#ffffff" opacity="1" layer="MULTILAYER" />
      <circle net="0" cx="1072" cy="869" r="8" r1="11" r2="5" stroke-width="6" stroke="#ff9900" fill="#ffffff" opacity="1" layer="MULTILAYER" />
      <circle net="0" cx="1003" cy="958" r="8" r1="11" r2="5" stroke-width="6" stroke="#ff9900" fill="#ffffff" opacity="1" layer="MULTILAYER" />
      <circle net="3" cx="1073" cy="973" r="8" r1="11" r2="5" stroke-width="6" stroke="#ff9900" fill="#ffffff" opacity="1" layer="MULTILAYER" />
      <circle net="0" cx="1158" cy="1211" r="8" r1="11" r2="5" stroke-width="6" stroke="#ff9900" fill="#ffffff" opacity="1" layer="MULTILAYER" />
      <circle net="0" cx="1158" cy="1176" r="8" r1="11" r2="5" stroke-width="6" stroke="#ff9900" fill="#ffffff" opacity="1" layer="MULTILAYER" />
      <circle net="0" cx="1218" cy="1176" r="8" r1="11" r2="5" stroke-width="6" stroke="#ff9900" fill="#ffffff" opacity="1" layer="MULTILAYER" />
      <circle net="0" cx="1248" cy="1176" r="8" r1="11" r2="5" stroke-width="6" stroke="#ff9900" fill="#ffffff" opacity="1" layer="MULTILAYER" />
      <circle net="0" cx="1308" cy="1176" r="8" r1="11" r2="5" stroke-width="6" stroke="#ff9900" fill="#ffffff" opacity="1" layer="MULTILAYER" />
      <circle net="0" cx="1338" cy="1176" r="8" r1="11" r2="5" stroke-width="6" stroke="#ff9900" fill="#ffffff" opacity="1" layer="MULTILAYER" />
      <circle net="0" cx="1398" cy="1176" r="8" r1="11" r2="5" stroke-width="6" stroke="#ff9900" fill="#ffffff" opacity="1" layer="MULTILAYER" />
      <circle net="0" cx="1072" cy="849" r="8" r1="11" r2="5" stroke-width="6" stroke="#ff9900" fill="#ffffff" opacity="1" layer="MULTILAYER" />
      <circle net="0" cx="1158" cy="1241" r="8" r1="11" r2="5" stroke-width="6" stroke="#ff9900" fill="#ffffff" opacity="1" layer="MULTILAYER" />
      <circle net="3" cx="816" cy="1205" r="8" r1="11" r2="5" stroke-width="6" stroke="#ff9900" fill="#ffffff" opacity="1" layer="MULTILAYER" />
      <circle net="0" cx="1034" cy="887" r="8" r1="11" r2="5" stroke-width="6" stroke="#ff9900" fill="#ffffff" opacity="1" layer="MULTILAYER" />
      <circle net="0" cx="1053" cy="887" r="8" r1="11" r2="5" stroke-width="6" stroke="#ff9900" fill="#ffffff" opacity="1" layer="MULTILAYER" />
      <circle net="0" cx="1034" cy="869" r="8" r1="11" r2="5" stroke-width="6" stroke="#ff9900" fill="#ffffff" opacity="1" layer="MULTILAYER" />
      <circle net="0" cx="1053" cy="869" r="8" r1="11" r2="5" stroke-width="6" stroke="#ff9900" fill="#ffffff" opacity="1" layer="MULTILAYER" />
      <circle net="0" cx="1188" cy="1176" r="8" r1="11" r2="5" stroke-width="6" stroke="#ff9900" fill="#ffffff" opacity="1" layer="MULTILAYER" />
      <circle net="0" cx="1278" cy="1176" r="8" r1="11" r2="5" stroke-width="6" stroke="#ff9900" fill="#ffffff" opacity="1" layer="MULTILAYER" />
      <circle net="0" cx="1053" cy="849" r="8" r1="11" r2="5" stroke-width="6" stroke="#ff9900" fill="#ffffff" opacity="1" layer="MULTILAYER" />
      <circle net="0" cx="1034" cy="849" r="8" r1="11" r2="5" stroke-width="6" stroke="#ff9900" fill="#ffffff" opacity="1" layer="MULTILAYER" />
      <circle net="3" cx="1098" cy="713" r="8" r1="11" r2="5" stroke-width="6" stroke="#ff9900" fill="#ffffff" opacity="1" layer="MULTILAYER" />
      <circle net="0" cx="1238" cy="598" r="8" r1="11" r2="5" stroke-width="6" stroke="#ff9900" fill="#ffffff" opacity="1" layer="MULTILAYER" />
      <circle net="0" cx="1198" cy="598" r="8" r1="11" r2="5" stroke-width="6" stroke="#ff9900" fill="#ffffff" opacity="1" layer="MULTILAYER" />
      <circle net="3" cx="998" cy="598" r="8" r1="11" r2="5" stroke-width="6" stroke="#ff9900" fill="#ffffff" opacity="1" layer="MULTILAYER" />
      <circle net="0" cx="2063" cy="1123" r="37" r1="43" r2="31" stroke-width="12" stroke="#ff9900" fill="#ffffff" opacity="1" layer="MULTILAYER" />
      <circle net="1" cx="2063" cy="793" r="37" r1="43" r2="31" stroke-width="12" stroke="#ff9900" fill="#ffffff" opacity="1" layer="MULTILAYER" />
      <circle net="0" cx="163" cy="1603" r="37" r1="43" r2="31" stroke-width="12" stroke="#ff9900" fill="#ffffff" opacity="1" layer="MULTILAYER" />
      <circle net="3" cx="163" cy="653" r="37" r1="43" r2="31" stroke-width="12" stroke="#ff9900" fill="#ffffff" opacity="1" layer="MULTILAYER" />
      <circle net="3" cx="1098" cy="418" r="37" r1="43" r2="31" stroke-width="12" stroke="#ff9900" fill="#ffffff" opacity="1" layer="MULTILAYER" />
    </g>

  
<g id="0603">
  <g id="Mask" style="display:none;">
  	<rect style="display:inline;" width="6.4" height="3.2"/>
  	<rect x="1.6" style="display:inline;" width="3.2" height="3.2"/>
  </g>
  <g id="Outline" style="display:none;">
  	<g style="display:inline;">
  		<path d="M6.15,0.25v2.7h-5.9v-2.7H6.15 M6.4,0H0v3.2h6.4V0L6.4,0z"/>
  	</g>
  	<g style="display:inline;">
  		<path d="M4.55,0.25v2.7h-2.7v-2.7H4.55 M4.8,0H1.6v3.2h3.2V0L4.8,0z"/>
  	</g>
  </g>
  <g id="Color">
  	<rect style="fill:#B3B3B3;" width="6.4" height="3.2"/>
  	<rect x="1.6" style="fill:#1A1A1A;" width="3.2" height="3.2"/>
  </g>
</g>
<g id="0402">
  <g id="MASK" display="none">
  	<g display="inline">
  		<rect x="0.125" y="0.125" width="3.752" height="1.757"/>
  		<path d="M3.752,0.25v1.507H0.25V0.25H3.752 M4.002,0H0v2.007h4.002V0L4.002,0z"/>
  	</g>
  </g>
  <g id="COLOR">
  	<rect fill="#CBCBCB" width="4.002" height="2.007"/>
  	<rect x="1.008" fill="#363636" width="1.986" height="2.007"/>
  </g>
  <g id="OUTLINE">
  	<g>
  		<path d="M3.752,0.25v1.507H0.25V0.25H3.752 M4.002,0H0v2.007h4.002V0L4.002,0z"/>
  	</g>
  	<g>
  		<path d="M2.744,0.25v1.507H1.258V0.25H2.744 M2.994,0H1.008v2.007h1.986V0L2.994,0z"/>
  	</g>
  </g>
</g>
<g id="XAL4020">
  <g id="Mask" style="display:none;">
  	<g style="display:inline;">
  		<path d="M14.397,16H1.603C0.721,16,0,15.279,0,14.397V1.603C0,0.721,0.721,0,1.603,0h12.795C15.279,0,16,0.721,16,1.603v12.795
  			C16,15.279,15.279,16,14.397,16z"/>
  	</g>
  </g>
  <g id="Online" style="display:none;">
  	<g style="display:inline;">
  		<path d="M14.397,0.25c0.746,0,1.353,0.607,1.353,1.353v12.795c0,0.746-0.607,1.353-1.353,1.353H1.603
  			c-0.746,0-1.353-0.607-1.353-1.353V1.603c0-0.746,0.607-1.353,1.353-1.353H14.397 M14.397,0H1.603C0.721,0,0,0.721,0,1.603v12.795
  			C0,15.279,0.721,16,1.603,16h12.795C15.279,16,16,15.279,16,14.397V1.603C16,0.721,15.279,0,14.397,0L14.397,0z"/>
  	</g>
  </g>
  <g id="Color">
  	<g>
  		<path style="fill:#333333;" d="M14.397,16H1.603C0.721,16,0,15.279,0,14.397V1.603C0,0.721,0.721,0,1.603,0h12.795
  			C15.279,0,16,0.721,16,1.603v12.795C16,15.279,15.279,16,14.397,16z"/>
  	</g>
  </g>
</g>
<g id="S-PVQFN-N16">
  <g id="Mask" display="none">
  	<rect x="0.5" y="0.5" display="inline" stroke="#000000" width="16" height="16"/>
  </g>
  <g id="Color">
  	<rect x="0.5" y="0.5" fill="#404040" stroke="#000000" width="16" height="16"/>
  	<circle fill="none" stroke="#000000" cx="2.304" cy="2.383" r="0.392"/>
  </g>
  <g id="Outline" display="none">
  	<rect x="0.5" y="0.5" display="inline" fill="none" stroke="#000000" width="16" height="16"/>
  	<circle display="inline" fill="none" stroke="#000000" cx="2.304" cy="2.383" r="0.392"/>
  </g>
</g>
</defs>
<g id="board">
  <use x="0" y="0" width="224.0" height="203.0" xlink:href="#boardbottom" transform="scale(-1,1) translate(-224.0,0)" />
  <use x="0" y="0" width="224.0" height="203.0" xlink:href="#boardbottomoverlay" transform="scale(-1,1) translate(-224.0,0)" />
</g>
</svg>
