<?xml version="1.0" encoding="UTF-8"?>
<!DOCTYPE svg PUBLIC "-//W3C//DTD SVG 1.1//EN" "http://www.w3.org/Graphics/SVG/1.1/DTD/svg11.dtd">

<svg xmlns="http://www.w3.org/2000/svg" xmlns:xlink="http://www.w3.org/1999/xlink" width="224.1px" height="203px" viewbox="0 0 224.1 203" version="1.1">
  <title>TPS62130_40_50_BUCK_FIX_RGT_A_top: null</title>
  <desc>TPS62130_40_50_BUCK_FIX_RGT_A WebTHERM&amp;reg; Board Layout file</desc>
<defs>
  <g id="boardtop" transform="scale(0.1016,-0.1016) translate(0,-2005.8999999999996)">
      <rect x="0" y="0" width="2205" height="2005" stroke="#006600" stroke-width="0" fill="#006600" type="Fill" layer="PCB" />
      <polygon net="0" points="2153,993 1080,993 1073,994 1065,993 1053,993 1053,981 1053,981 1052,979 1052,978 1048,974 1047,968 1047,937 1046,932 1046,923 1004,923 1002,923 983,923 983,1037 983,1038 983,1303 983,1303 983,1313 973,1313 973,1313 53,1313 53,1983 2153,1983" stroke-width="0.0" stroke="#ff9900" fill="#ff9900" stroke-linecap="round" stroke-linejoin="round" opacity="1.0" layer="TOP" />
      <polygon net="3" points="973,1038 393,1038 393,553 53,553 53,1303 973,1303" stroke-width="0.0" stroke="#ff9900" fill="#ff9900" stroke-linecap="round" stroke-linejoin="round" opacity="1.0" layer="TOP" />
      <polygon net="1" points="2153,708 1283,708 1283,853 1148,853 1144,853 1122,853 1117,854 1099,854 1098,855 1098,973 2153,973" stroke-width="0.0" stroke="#ff9900" fill="#ff9900" stroke-linecap="round" stroke-linejoin="round" opacity="1.0" layer="TOP" />
      <polygon net="0" points="1453,498 1173,498 1173,678 1453,678" stroke-width="0.0" stroke="#ff9900" fill="#ff9900" stroke-linecap="round" stroke-linejoin="round" opacity="1.0" layer="TOP" />
      <polygon net="8" points="953,903 1002,903 1002,899 1002,897 1002,895 1002,879 1002,877 1002,876 1002,859 999,854 989,854 982,853 981,853 953,853 953,803 413,803 413,1018 953,1018" stroke-width="0.0" stroke="#ff9900" fill="#ff9900" stroke-linecap="round" stroke-linejoin="round" opacity="1.0" layer="TOP" />
      <polygon net="0" points="1046,932 1046,914 1047,907 1048,907 1048,898 1061,898 1062,897 1064,898 1077,898 1082,897 1083,892 1083,879 1082,877 1083,876 1083,859 1082,858 1083,856 1083,840 1082,838 1082,838 1064,838 1062,838 1061,838 1048,838 1048,828 1047,828 1046,822 1046,813 1038,813 1038,838 1023,838 1023,838 1023,840 1023,856 1023,858 1023,859 1023,876 1023,877 1023,879 1023,895 1023,897 1023,899 1023,933 1045,933" stroke-width="0.0" stroke="#ff9900" fill="#ff9900" stroke-linecap="round" stroke-linejoin="round" opacity="1.0" layer="TOP" />
      <line net="0" x1="163" y1="1413" x2="163" y2="1603" stroke-width="10" stroke="#ff9900" stroke-linecap="round" stroke-linejoin="round" opacity="1.0" layer="TOP" />
      <line net="0" x1="163" y1="1413" x2="203" y2="1373" stroke-width="10" stroke="#ff9900" stroke-linecap="round" stroke-linejoin="round" opacity="1.0" layer="TOP" />
      <line net="0" x1="203" y1="1373" x2="983" y2="1373" stroke-width="10" stroke="#ff9900" stroke-linecap="round" stroke-linejoin="round" opacity="1.0" layer="TOP" />
      <line net="3" x1="1062" y1="788" x2="1098" y2="753" stroke-width="10" stroke="#ff9900" stroke-linecap="round" stroke-linejoin="round" opacity="1.0" layer="TOP" />
      <line net="1" x1="1108" y1="897" x2="1108" y2="943" stroke-width="10" stroke="#ff9900" stroke-linecap="round" stroke-linejoin="round" opacity="1.0" layer="TOP" />
      <line net="1" x1="1103" y1="948" x2="1108" y2="943" stroke-width="10" stroke="#ff9900" stroke-linecap="round" stroke-linejoin="round" opacity="1.0" layer="TOP" />
      <line net="1" x1="1088" y1="948" x2="1103" y2="948" stroke-width="10" stroke="#ff9900" stroke-linecap="round" stroke-linejoin="round" opacity="1.0" layer="TOP" />
      <line net="1" x1="1082" y1="942" x2="1088" y2="948" stroke-width="10" stroke="#ff9900" stroke-linecap="round" stroke-linejoin="round" opacity="1.0" layer="TOP" />
      <line net="1" x1="1082" y1="923" x2="1082" y2="942" stroke-width="10" stroke="#ff9900" stroke-linecap="round" stroke-linejoin="round" opacity="1.0" layer="TOP" />
      <line net="7" x1="998" y1="721" x2="998" y2="838" stroke-width="10" stroke="#ff9900" stroke-linecap="round" stroke-linejoin="round" opacity="1.0" layer="TOP" />
      <line net="3" x1="1062" y1="923" x2="1062" y2="968" stroke-width="10" stroke="#ff9900" stroke-linecap="round" stroke-linejoin="round" opacity="1.0" layer="TOP" />
      <line net="2" x1="1108" y1="838" x2="1144" y2="838" stroke-width="10" stroke="#ff9900" stroke-linecap="round" stroke-linejoin="round" opacity="1.0" layer="TOP" />
      <line net="1" x1="1108" y1="858" x2="1138" y2="858" stroke-width="10" stroke="#ff9900" stroke-linecap="round" stroke-linejoin="round" opacity="1.0" layer="TOP" />
      <line net="1" x1="1138" y1="858" x2="1148" y2="868" stroke-width="10" stroke="#ff9900" stroke-linecap="round" stroke-linejoin="round" opacity="1.0" layer="TOP" />
      <line net="1" x1="1148" y1="868" x2="1148" y2="877" stroke-width="10" stroke="#ff9900" stroke-linecap="round" stroke-linejoin="round" opacity="1.0" layer="TOP" />
      <line net="1" x1="1108" y1="897" x2="1108" y2="898" stroke-width="10" stroke="#ff9900" stroke-linecap="round" stroke-linejoin="round" opacity="1.0" layer="TOP" />
      <line net="1" x1="1108" y1="877" x2="1148" y2="877" stroke-width="10" stroke="#ff9900" stroke-linecap="round" stroke-linejoin="round" opacity="1.0" layer="TOP" />
      <line net="1" x1="1148" y1="877" x2="1148" y2="888" stroke-width="10" stroke="#ff9900" stroke-linecap="round" stroke-linejoin="round" opacity="1.0" layer="TOP" />
      <line net="1" x1="1138" y1="898" x2="1148" y2="888" stroke-width="10" stroke="#ff9900" stroke-linecap="round" stroke-linejoin="round" opacity="1.0" layer="TOP" />
      <line net="1" x1="1108" y1="898" x2="1138" y2="898" stroke-width="10" stroke="#ff9900" stroke-linecap="round" stroke-linejoin="round" opacity="1.0" layer="TOP" />
      <line net="0" x1="1082" y1="813" x2="1082" y2="839" stroke-width="8" stroke="#ff9900" stroke-linecap="round" stroke-linejoin="round" opacity="1.0" layer="TOP" />
      <line net="8" x1="964" y1="897" x2="998" y2="897" stroke-width="10" stroke="#ff9900" stroke-linecap="round" stroke-linejoin="round" opacity="1.0" layer="TOP" />
      <line net="8" x1="962" y1="895" x2="964" y2="897" stroke-width="10" stroke="#ff9900" stroke-linecap="round" stroke-linejoin="round" opacity="1.0" layer="TOP" />
      <line net="8" x1="962" y1="877" x2="962" y2="895" stroke-width="10" stroke="#ff9900" stroke-linecap="round" stroke-linejoin="round" opacity="1.0" layer="TOP" />
      <line net="8" x1="962" y1="862" x2="962" y2="877" stroke-width="10" stroke="#ff9900" stroke-linecap="round" stroke-linejoin="round" opacity="1.0" layer="TOP" />
      <line net="8" x1="962" y1="862" x2="965" y2="858" stroke-width="10" stroke="#ff9900" stroke-linecap="round" stroke-linejoin="round" opacity="1.0" layer="TOP" />
      <line net="8" x1="965" y1="858" x2="998" y2="858" stroke-width="10" stroke="#ff9900" stroke-linecap="round" stroke-linejoin="round" opacity="1.0" layer="TOP" />
      <line net="8" x1="962" y1="877" x2="998" y2="877" stroke-width="10" stroke="#ff9900" stroke-linecap="round" stroke-linejoin="round" opacity="1.0" layer="TOP" />
      <line net="1" x1="1336" y1="923" x2="1984" y2="923" stroke-width="10" stroke="#ff9900" stroke-linecap="round" stroke-linejoin="round" opacity="1.0" layer="TOP" />
      <line net="0" x1="1023" y1="923" x2="1023" y2="942" stroke-width="10" stroke="#ff9900" stroke-linecap="round" stroke-linejoin="round" opacity="1.0" layer="TOP" />
      <line net="0" x1="1023" y1="942" x2="1028" y2="947" stroke-width="10" stroke="#ff9900" stroke-linecap="round" stroke-linejoin="round" opacity="1.0" layer="TOP" />
      <line net="0" x1="1028" y1="947" x2="1039" y2="947" stroke-width="10" stroke="#ff9900" stroke-linecap="round" stroke-linejoin="round" opacity="1.0" layer="TOP" />
      <line net="0" x1="1039" y1="947" x2="1043" y2="942" stroke-width="10" stroke="#ff9900" stroke-linecap="round" stroke-linejoin="round" opacity="1.0" layer="TOP" />
      <line net="0" x1="1043" y1="923" x2="1043" y2="942" stroke-width="10" stroke="#ff9900" stroke-linecap="round" stroke-linejoin="round" opacity="1.0" layer="TOP" />
      <line net="0" x1="1028" y1="947" x2="1028" y2="951" stroke-width="10" stroke="#ff9900" stroke-linecap="round" stroke-linejoin="round" opacity="1.0" layer="TOP" />
      <line net="0" x1="1021" y1="958" x2="1028" y2="951" stroke-width="10" stroke="#ff9900" stroke-linecap="round" stroke-linejoin="round" opacity="1.0" layer="TOP" />
      <line net="0" x1="1003" y1="958" x2="1021" y2="958" stroke-width="10" stroke="#ff9900" stroke-linecap="round" stroke-linejoin="round" opacity="1.0" layer="TOP" />
      <line net="0" x1="1147" y1="1038" x2="2023" y2="1038" stroke-width="10" stroke="#ff9900" stroke-linecap="round" stroke-linejoin="round" opacity="1.0" layer="TOP" />
      <line net="0" x1="2023" y1="1038" x2="2063" y2="1078" stroke-width="10" stroke="#ff9900" stroke-linecap="round" stroke-linejoin="round" opacity="1.0" layer="TOP" />
      <line net="0" x1="2063" y1="1078" x2="2063" y2="1123" stroke-width="10" stroke="#ff9900" stroke-linecap="round" stroke-linejoin="round" opacity="1.0" layer="TOP" />
      <line net="1" x1="2063" y1="793" x2="2063" y2="845" stroke-width="10" stroke="#ff9900" stroke-linecap="round" stroke-linejoin="round" opacity="1.0" layer="TOP" />
      <line net="1" x1="1984" y1="923" x2="2063" y2="845" stroke-width="10" stroke="#ff9900" stroke-linecap="round" stroke-linejoin="round" opacity="1.0" layer="TOP" />
      <line net="1" x1="1323" y1="910" x2="1336" y2="923" stroke-width="10" stroke="#ff9900" stroke-linecap="round" stroke-linejoin="round" opacity="1.0" layer="TOP" />
      <line net="1" x1="1323" y1="760" x2="1323" y2="910" stroke-width="10" stroke="#ff9900" stroke-linecap="round" stroke-linejoin="round" opacity="1.0" layer="TOP" />
      <line net="3" x1="1062" y1="968" x2="1067" y2="973" stroke-width="10" stroke="#ff9900" stroke-linecap="round" stroke-linejoin="round" opacity="1.0" layer="TOP" />
      <line net="3" x1="1067" y1="973" x2="1073" y2="973" stroke-width="10" stroke="#ff9900" stroke-linecap="round" stroke-linejoin="round" opacity="1.0" layer="TOP" />
      <line net="0" x1="1134" y1="1051" x2="1147" y2="1038" stroke-width="10" stroke="#ff9900" stroke-linecap="round" stroke-linejoin="round" opacity="1.0" layer="TOP" />
      <line net="0" x1="1134" y1="1051" x2="1134" y2="1121" stroke-width="10" stroke="#ff9900" stroke-linecap="round" stroke-linejoin="round" opacity="1.0" layer="TOP" />
      <line net="3" x1="163" y1="513" x2="203" y2="473" stroke-width="10" stroke="#ff9900" stroke-linecap="round" stroke-linejoin="round" opacity="1.0" layer="TOP" />
      <line net="3" x1="163" y1="513" x2="163" y2="653" stroke-width="10" stroke="#ff9900" stroke-linecap="round" stroke-linejoin="round" opacity="1.0" layer="TOP" />
      <line net="1" x1="1165" y1="925" x2="1233" y2="925" stroke-width="10" stroke="#ff9900" stroke-linecap="round" stroke-linejoin="round" opacity="1.0" layer="TOP" />
      <line net="1" x1="1138" y1="898" x2="1165" y2="925" stroke-width="10" stroke="#ff9900" stroke-linecap="round" stroke-linejoin="round" opacity="1.0" layer="TOP" />
      <line net="1" x1="1233" y1="925" x2="1307" y2="925" stroke-width="10" stroke="#ff9900" stroke-linecap="round" stroke-linejoin="round" opacity="1.0" layer="TOP" />
      <line net="1" x1="1307" y1="925" x2="1323" y2="910" stroke-width="10" stroke="#ff9900" stroke-linecap="round" stroke-linejoin="round" opacity="1.0" layer="TOP" />
      <line net="3" x1="203" y1="473" x2="728" y2="473" stroke-width="10" stroke="#ff9900" stroke-linecap="round" stroke-linejoin="round" opacity="1.0" layer="TOP" />
      <line net="2" x1="1218" y1="716" x2="1218" y2="764" stroke-width="10" stroke="#ff9900" stroke-linecap="round" stroke-linejoin="round" opacity="1.0" layer="TOP" />
      <line net="2" x1="1144" y1="838" x2="1218" y2="764" stroke-width="10" stroke="#ff9900" stroke-linecap="round" stroke-linejoin="round" opacity="1.0" layer="TOP" />
      <line net="3" x1="1062" y1="788" x2="1062" y2="813" stroke-width="10" stroke="#ff9900" stroke-linecap="round" stroke-linejoin="round" opacity="1.0" layer="TOP" />
      <line net="8" x1="638" y1="851" x2="831" y2="851" stroke-width="10" stroke="#ff9900" stroke-linecap="round" stroke-linejoin="round" opacity="1.0" layer="TOP" />
      <line net="8" x1="831" y1="851" x2="877" y2="897" stroke-width="10" stroke="#ff9900" stroke-linecap="round" stroke-linejoin="round" opacity="1.0" layer="TOP" />
      <line net="8" x1="877" y1="897" x2="964" y2="897" stroke-width="10" stroke="#ff9900" stroke-linecap="round" stroke-linejoin="round" opacity="1.0" layer="TOP" />
      <line net="3" x1="638" y1="1205" x2="816" y2="1205" stroke-width="10" stroke="#ff9900" stroke-linecap="round" stroke-linejoin="round" opacity="1.0" layer="TOP" />
      <line net="3" x1="425" y1="1205" x2="638" y2="1205" stroke-width="10" stroke="#ff9900" stroke-linecap="round" stroke-linejoin="round" opacity="1.0" layer="TOP" />
      <line net="3" x1="163" y1="943" x2="425" y2="1205" stroke-width="10" stroke="#ff9900" stroke-linecap="round" stroke-linejoin="round" opacity="1.0" layer="TOP" />
      <line net="3" x1="163" y1="653" x2="163" y2="943" stroke-width="10" stroke="#ff9900" stroke-linecap="round" stroke-linejoin="round" opacity="1.0" layer="TOP" />
      <line net="3" x1="816" y1="1205" x2="868" y2="1153" stroke-width="10" stroke="#ff9900" stroke-linecap="round" stroke-linejoin="round" opacity="1.0" layer="TOP" />
      <line net="3" x1="868" y1="1153" x2="918" y2="1153" stroke-width="10" stroke="#ff9900" stroke-linecap="round" stroke-linejoin="round" opacity="1.0" layer="TOP" />
      <line net="0" x1="1038" y1="1153" x2="1103" y2="1153" stroke-width="10" stroke="#ff9900" stroke-linecap="round" stroke-linejoin="round" opacity="1.0" layer="TOP" />
      <line net="0" x1="1103" y1="1153" x2="1134" y2="1121" stroke-width="10" stroke="#ff9900" stroke-linecap="round" stroke-linejoin="round" opacity="1.0" layer="TOP" />
      <line net="0" x1="1038" y1="1153" x2="1038" y2="1318" stroke-width="10" stroke="#ff9900" stroke-linecap="round" stroke-linejoin="round" opacity="1.0" layer="TOP" />
      <line net="0" x1="983" y1="1373" x2="1038" y2="1318" stroke-width="10" stroke="#ff9900" stroke-linecap="round" stroke-linejoin="round" opacity="1.0" layer="TOP" />
      <line net="0" x1="1072" y1="849" x2="1081" y2="839" stroke-width="8" stroke="#ff9900" stroke-linecap="round" stroke-linejoin="round" opacity="1.0" layer="TOP" />
      <line net="3" x1="1098" y1="713" x2="1098" y2="753" stroke-width="10" stroke="#ff9900" stroke-linecap="round" stroke-linejoin="round" opacity="1.0" layer="TOP" />
      <line net="3" x1="728" y1="473" x2="853" y2="598" stroke-width="10" stroke="#ff9900" stroke-linecap="round" stroke-linejoin="round" opacity="1.0" layer="TOP" />
      <line net="3" x1="998" y1="598" x2="998" y2="654" stroke-width="10" stroke="#ff9900" stroke-linecap="round" stroke-linejoin="round" opacity="1.0" layer="TOP" />
      <line net="3" x1="853" y1="598" x2="998" y2="598" stroke-width="10" stroke="#ff9900" stroke-linecap="round" stroke-linejoin="round" opacity="1.0" layer="TOP" />
      <line net="0" x1="1038" y1="778" x2="1043" y2="783" stroke-width="10" stroke="#ff9900" stroke-linecap="round" stroke-linejoin="round" opacity="1.0" layer="TOP" />
      <line net="0" x1="1043" y1="783" x2="1043" y2="812" stroke-width="10" stroke="#ff9900" stroke-linecap="round" stroke-linejoin="round" opacity="1.0" layer="TOP" />
      <line net="0" x1="1043" y1="812" x2="1043" y2="813" stroke-width="10" stroke="#ff9900" stroke-linecap="round" stroke-linejoin="round" opacity="1.0" layer="TOP" />
      <line net="0" x1="1023" y1="782" x2="1023" y2="813" stroke-width="10" stroke="#ff9900" stroke-linecap="round" stroke-linejoin="round" opacity="1.0" layer="TOP" />
      <line net="0" x1="1023" y1="782" x2="1028" y2="778" stroke-width="10" stroke="#ff9900" stroke-linecap="round" stroke-linejoin="round" opacity="1.0" layer="TOP" />
      <line net="0" x1="1028" y1="778" x2="1038" y2="778" stroke-width="10" stroke="#ff9900" stroke-linecap="round" stroke-linejoin="round" opacity="1.0" layer="TOP" />
      <line net="7" x1="997" y1="702" x2="997" y2="739" stroke-width="10" stroke="#ff9900" stroke-linecap="round" stroke-linejoin="round" opacity="1.0" layer="TOP" />
      <line net="3" x1="997" y1="635" x2="997" y2="672" stroke-width="10" stroke="#ff9900" stroke-linecap="round" stroke-linejoin="round" opacity="1.0" layer="TOP" />
      <line net="0" x1="1322" y1="597" x2="1322" y2="683" stroke-width="10" stroke="#ff9900" stroke-linecap="round" stroke-linejoin="round" opacity="1.0" layer="TOP" />
      <line net="1" x1="1322" y1="712" x2="1322" y2="798" stroke-width="10" stroke="#ff9900" stroke-linecap="round" stroke-linejoin="round" opacity="1.0" layer="TOP" />
      <line net="0" x1="1217" y1="630" x2="1217" y2="667" stroke-width="10" stroke="#ff9900" stroke-linecap="round" stroke-linejoin="round" opacity="1.0" layer="TOP" />
      <line net="2" x1="1217" y1="697" x2="1217" y2="734" stroke-width="10" stroke="#ff9900" stroke-linecap="round" stroke-linejoin="round" opacity="1.0" layer="TOP" />
      <rect comp="0" net="1" pin="1" x="1185.3" y="942.9" width="38" height="26" stroke-width="0" stroke="#ff9900" fill="#ff9900" opacity="1.0" layer="TOP" />
      <rect comp="0" net="0" pin="2" x="1185.3" y="997.9" width="38" height="26" stroke-width="0" stroke="#ff9900" fill="#ff9900" opacity="1.0" layer="TOP" />
      <rect comp="3" net="1" pin="1" x="1303.8" y="712.1" width="38" height="26" stroke-width="0" stroke="#ff9900" fill="#ff9900" opacity="1.0" layer="TOP" />
      <rect comp="3" net="0" pin="2" x="1303.8" y="657.1" width="38" height="26" stroke-width="0" stroke="#ff9900" fill="#ff9900" opacity="1.0" layer="TOP" />
      <rect comp="1" net="3" pin="1" x="938.6" y="1039.6" width="26" height="38" stroke-width="0" stroke="#ff9900" fill="#ff9900" opacity="1.0" layer="TOP" />
      <rect comp="1" net="0" pin="2" x="993.6" y="1039.6" width="26" height="38" stroke-width="0" stroke="#ff9900" fill="#ff9900" opacity="1.0" layer="TOP" />
      <rect comp="4" net="2" pin="1" x="1206.1" y="688.5" width="24" height="22" stroke-width="0" stroke="#ff9900" fill="#ff9900" opacity="1.0" layer="TOP" />
      <rect comp="4" net="0" pin="2" x="1206.1" y="655.5" width="24" height="22" stroke-width="0" stroke="#ff9900" fill="#ff9900" opacity="1.0" layer="TOP" />
      <circle comp="9" net="0" pin="1" cx="2062.9" cy="1122.4" r="32" stroke-width="0" stroke="#ff9900" fill="#ff9900" layer="TOP" opacity="1.0" />
      <circle comp="7" net="0" pin="1" cx="162.9" cy="1602.7" r="32" stroke-width="0" stroke="#ff9900" fill="#ff9900" layer="TOP" opacity="1.0" />
      <rect comp="11" net="8" pin="1" x="695" y="964.8" width="146" height="38" stroke-width="0" stroke="#ff9900" fill="#ff9900" opacity="1.0" layer="TOP" />
      <rect comp="11" net="3" pin="2" x="695" y="1057.8" width="146" height="38" stroke-width="0" stroke="#ff9900" fill="#ff9900" opacity="1.0" layer="TOP" />
      <rect comp="2" net="3" pin="1" x="986.0" y="660" width="24" height="22" stroke-width="0" stroke="#ff9900" fill="#ff9900" opacity="1.0" layer="TOP" />
      <rect comp="2" net="7" pin="2" x="986.0" y="693" width="24" height="22" stroke-width="0" stroke="#ff9900" fill="#ff9900" opacity="1.0" layer="TOP" />
      <circle comp="10" net="3" pin="1" cx="1098.0" cy="417.7" r="32" stroke-width="0" stroke="#ff9900" fill="#ff9900" layer="TOP" opacity="1.0" />
      <rect comp="5" net="8" pin="1" x="986.2" y="893" width="23.6" height="9.4" stroke-width="0" stroke="#ff9900" fill="#ff9900" opacity="1.0" layer="TOP" />
      <rect comp="5" net="8" pin="2" x="986.2" y="874.0" width="23.6" height="9.4" stroke-width="0" stroke="#ff9900" fill="#ff9900" opacity="1.0" layer="TOP" />
      <rect comp="5" net="8" pin="3" x="986.2" y="854.3" width="23.6" height="9.4" stroke-width="0" stroke="#ff9900" fill="#ff9900" opacity="1.0" layer="TOP" />
      <rect comp="5" net="7" pin="4" x="986.2" y="834.6" width="23.6" height="9.4" stroke-width="0" stroke="#ff9900" fill="#ff9900" opacity="1.0" layer="TOP" />
      <rect comp="5" net="0" pin="5" x="1018" y="801.9" width="9.4" height="23.6" stroke-width="0" stroke="#ff9900" fill="#ff9900" opacity="1.0" layer="TOP" />
      <rect comp="5" net="0" pin="6" x="1038.5" y="801.9" width="9.4" height="23.6" stroke-width="0" stroke="#ff9900" fill="#ff9900" opacity="1.0" layer="TOP" />
      <rect comp="5" net="3" pin="7" x="1058.2" y="801.9" width="9.4" height="23.6" stroke-width="0" stroke="#ff9900" fill="#ff9900" opacity="1.0" layer="TOP" />
      <rect comp="5" net="0" pin="8" x="1077.9" y="801.9" width="9.4" height="23.6" stroke-width="0" stroke="#ff9900" fill="#ff9900" opacity="1.0" layer="TOP" />
      <rect comp="5" net="2" pin="9" x="1096.4" y="834.6" width="23.6" height="9.4" stroke-width="0" stroke="#ff9900" fill="#ff9900" opacity="1.0" layer="TOP" />
      <rect comp="5" net="1" pin="10" x="1096.4" y="854.3" width="23.6" height="9.4" stroke-width="0" stroke="#ff9900" fill="#ff9900" opacity="1.0" layer="TOP" />
      <rect comp="5" net="1" pin="11" x="1096.4" y="874.0" width="23.6" height="9.4" stroke-width="0" stroke="#ff9900" fill="#ff9900" opacity="1.0" layer="TOP" />
      <rect comp="5" net="1" pin="12" x="1096.4" y="893" width="23.6" height="9.4" stroke-width="0" stroke="#ff9900" fill="#ff9900" opacity="1.0" layer="TOP" />
      <rect comp="5" net="1" pin="13" x="1077.9" y="912" width="9.4" height="23.6" stroke-width="0" stroke="#ff9900" fill="#ff9900" opacity="1.0" layer="TOP" />
      <rect comp="5" net="3" pin="14" x="1058.2" y="912" width="9.4" height="23.6" stroke-width="0" stroke="#ff9900" fill="#ff9900" opacity="1.0" layer="TOP" />
      <rect comp="5" net="0" pin="15" x="1038.5" y="912" width="9.4" height="23.6" stroke-width="0" stroke="#ff9900" fill="#ff9900" opacity="1.0" layer="TOP" />
      <rect comp="5" net="0" pin="16" x="1018" y="912" width="9.4" height="23.6" stroke-width="0" stroke="#ff9900" fill="#ff9900" opacity="1.0" layer="TOP" />
      <rect comp="5" net="0" pin="17" x="1020.0" y="835.8" width="66.1" height="66.1" stroke-width="0" stroke="#ff9900" fill="#ff9900" opacity="1.0" layer="TOP" />
      <circle comp="8" net="1" pin="1" cx="2062.9" cy="792.9" r="32" stroke-width="0" stroke="#ff9900" fill="#ff9900" layer="TOP" opacity="1.0" />
      <circle comp="6" net="3" pin="1" cx="162.9" cy="653.1" r="32" stroke-width="0" stroke="#ff9900" fill="#ff9900" layer="TOP" opacity="1.0" />
      <circle net="0" cx="1072" cy="887" r="8" r1="11" r2="5" stroke-width="6" stroke="#ff9900" fill="#ffffff" opacity="1" layer="MULTILAYER" />
      <circle net="0" cx="1072" cy="869" r="8" r1="11" r2="5" stroke-width="6" stroke="#ff9900" fill="#ffffff" opacity="1" layer="MULTILAYER" />
      <circle net="0" cx="1003" cy="958" r="8" r1="11" r2="5" stroke-width="6" stroke="#ff9900" fill="#ffffff" opacity="1" layer="MULTILAYER" />
      <circle net="3" cx="1073" cy="973" r="8" r1="11" r2="5" stroke-width="6" stroke="#ff9900" fill="#ffffff" opacity="1" layer="MULTILAYER" />
      <circle net="0" cx="1158" cy="1211" r="8" r1="11" r2="5" stroke-width="6" stroke="#ff9900" fill="#ffffff" opacity="1" layer="MULTILAYER" />
      <circle net="0" cx="1158" cy="1176" r="8" r1="11" r2="5" stroke-width="6" stroke="#ff9900" fill="#ffffff" opacity="1" layer="MULTILAYER" />
      <circle net="0" cx="1218" cy="1176" r="8" r1="11" r2="5" stroke-width="6" stroke="#ff9900" fill="#ffffff" opacity="1" layer="MULTILAYER" />
      <circle net="0" cx="1248" cy="1176" r="8" r1="11" r2="5" stroke-width="6" stroke="#ff9900" fill="#ffffff" opacity="1" layer="MULTILAYER" />
      <circle net="0" cx="1308" cy="1176" r="8" r1="11" r2="5" stroke-width="6" stroke="#ff9900" fill="#ffffff" opacity="1" layer="MULTILAYER" />
      <circle net="0" cx="1338" cy="1176" r="8" r1="11" r2="5" stroke-width="6" stroke="#ff9900" fill="#ffffff" opacity="1" layer="MULTILAYER" />
      <circle net="0" cx="1398" cy="1176" r="8" r1="11" r2="5" stroke-width="6" stroke="#ff9900" fill="#ffffff" opacity="1" layer="MULTILAYER" />
      <circle net="0" cx="1072" cy="849" r="8" r1="11" r2="5" stroke-width="6" stroke="#ff9900" fill="#ffffff" opacity="1" layer="MULTILAYER" />
      <circle net="0" cx="1158" cy="1241" r="8" r1="11" r2="5" stroke-width="6" stroke="#ff9900" fill="#ffffff" opacity="1" layer="MULTILAYER" />
      <circle net="3" cx="816" cy="1205" r="8" r1="11" r2="5" stroke-width="6" stroke="#ff9900" fill="#ffffff" opacity="1" layer="MULTILAYER" />
      <circle net="0" cx="1034" cy="887" r="8" r1="11" r2="5" stroke-width="6" stroke="#ff9900" fill="#ffffff" opacity="1" layer="MULTILAYER" />
      <circle net="0" cx="1053" cy="887" r="8" r1="11" r2="5" stroke-width="6" stroke="#ff9900" fill="#ffffff" opacity="1" layer="MULTILAYER" />
      <circle net="0" cx="1034" cy="869" r="8" r1="11" r2="5" stroke-width="6" stroke="#ff9900" fill="#ffffff" opacity="1" layer="MULTILAYER" />
      <circle net="0" cx="1053" cy="869" r="8" r1="11" r2="5" stroke-width="6" stroke="#ff9900" fill="#ffffff" opacity="1" layer="MULTILAYER" />
      <circle net="0" cx="1188" cy="1176" r="8" r1="11" r2="5" stroke-width="6" stroke="#ff9900" fill="#ffffff" opacity="1" layer="MULTILAYER" />
      <circle net="0" cx="1278" cy="1176" r="8" r1="11" r2="5" stroke-width="6" stroke="#ff9900" fill="#ffffff" opacity="1" layer="MULTILAYER" />
      <circle net="0" cx="1053" cy="849" r="8" r1="11" r2="5" stroke-width="6" stroke="#ff9900" fill="#ffffff" opacity="1" layer="MULTILAYER" />
      <circle net="0" cx="1034" cy="849" r="8" r1="11" r2="5" stroke-width="6" stroke="#ff9900" fill="#ffffff" opacity="1" layer="MULTILAYER" />
      <circle net="3" cx="1098" cy="713" r="8" r1="11" r2="5" stroke-width="6" stroke="#ff9900" fill="#ffffff" opacity="1" layer="MULTILAYER" />
      <circle net="0" cx="1238" cy="598" r="8" r1="11" r2="5" stroke-width="6" stroke="#ff9900" fill="#ffffff" opacity="1" layer="MULTILAYER" />
      <circle net="0" cx="1198" cy="598" r="8" r1="11" r2="5" stroke-width="6" stroke="#ff9900" fill="#ffffff" opacity="1" layer="MULTILAYER" />
      <circle net="3" cx="998" cy="598" r="8" r1="11" r2="5" stroke-width="6" stroke="#ff9900" fill="#ffffff" opacity="1" layer="MULTILAYER" />
      <circle net="0" cx="2063" cy="1123" r="37" r1="43" r2="31" stroke-width="12" stroke="#ff9900" fill="#ffffff" opacity="1" layer="MULTILAYER" />
      <circle net="1" cx="2063" cy="793" r="37" r1="43" r2="31" stroke-width="12" stroke="#ff9900" fill="#ffffff" opacity="1" layer="MULTILAYER" />
      <circle net="0" cx="163" cy="1603" r="37" r1="43" r2="31" stroke-width="12" stroke="#ff9900" fill="#ffffff" opacity="1" layer="MULTILAYER" />
      <circle net="3" cx="163" cy="653" r="37" r1="43" r2="31" stroke-width="12" stroke="#ff9900" fill="#ffffff" opacity="1" layer="MULTILAYER" />
      <circle net="3" cx="1098" cy="418" r="37" r1="43" r2="31" stroke-width="12" stroke="#ff9900" fill="#ffffff" opacity="1" layer="MULTILAYER" />
    </g>

  
  <g id="boardtopoverlay" transform="scale(0.1016,-0.1016) translate(0,-2005.8999999999996)">
      <text x="1268" y="1198" font-family="Arial" font-style="normal" font-weight="normal" font-size="68" transform="translate(0,2396) scale(1,-1)" fill="#ffffff" opacity="1.0" layer="TOPOVERLAY">Cin</text>
      <text x="1068" y="1308" font-family="Arial" font-style="normal" font-weight="normal" font-size="68" transform="translate(0,2616) scale(1,-1)" fill="#ffffff" opacity="1.0" layer="TOPOVERLAY">Cout</text>
      <text x="908" y="518" font-family="Arial" font-style="normal" font-weight="normal" font-size="68" transform="translate(0,1036) scale(1,-1)" fill="#ffffff" opacity="1.0" layer="TOPOVERLAY">Rpg</text>
      <text x="1443" y="676" font-family="Arial" font-style="normal" font-weight="normal" font-size="68" transform="translate(0,1352) scale(1,-1)" fill="#ffffff" opacity="1.0" layer="TOPOVERLAY">Cinx</text>
      <text x="1186" y="513" font-family="Arial" font-style="normal" font-weight="normal" font-size="68" transform="translate(0,1026) scale(1,-1)" fill="#ffffff" opacity="1.0" layer="TOPOVERLAY">Css</text>
      <text x="923" y="793" font-family="Arial" font-style="normal" font-weight="normal" font-size="59" transform="translate(0,1586) scale(1,-1)" fill="#ffffff" opacity="1.0" layer="TOPOVERLAY">U1</text>
      <text x="108" y="463" font-family="Arial" font-style="normal" font-weight="normal" font-size="68" transform="translate(0,926) scale(1,-1)" fill="#ffffff" opacity="1.0" layer="TOPOVERLAY">Vout</text>
      <text x="93" y="1683" font-family="Arial" font-style="normal" font-weight="normal" font-size="68" transform="translate(0,3366) scale(1,-1)" fill="#ffffff" opacity="1.0" layer="TOPOVERLAY">GND1</text>
      <text x="2004" y="656" font-family="Arial" font-style="normal" font-weight="normal" font-size="68" transform="translate(0,1312) scale(1,-1)" fill="#ffffff" opacity="1.0" layer="TOPOVERLAY">Vin</text>
      <text x="1990" y="1249" font-family="Arial" font-style="normal" font-weight="normal" font-size="68" transform="translate(0,2498) scale(1,-1)" fill="#ffffff" opacity="1.0" layer="TOPOVERLAY">GND</text>
      <text x="1218" y="398" font-family="Arial" font-style="normal" font-weight="normal" font-size="68" transform="translate(0,796) scale(1,-1)" fill="#ffffff" opacity="1.0" layer="TOPOVERLAY">TP_FSW</text>
      <text x="303" y="1168" font-family="Arial" font-style="normal" font-weight="normal" font-size="68" transform="translate(0,2336) scale(1,-1)" fill="#ffffff" opacity="1.0" layer="TOPOVERLAY">L1</text>
      <text x="78" y="122" font-family="Arial" font-style="normal" font-weight="normal" font-size="68" transform="translate(0,244) scale(1,-1)" fill="#ffffff" opacity="1.0" layer="TOPOVERLAY">2) 2.5 MHz : Jumper FSW test point to GND or float</text>
      <text x="83" y="202" font-family="Arial" font-style="normal" font-weight="normal" font-size="68" transform="translate(0,404) scale(1,-1)" fill="#ffffff" opacity="1.0" layer="TOPOVERLAY">1) 1.25 MHz : Jumper FSW test point to VOUT;</text>
      <text x="83" y="282" font-family="Arial" font-style="normal" font-weight="normal" font-size="68" transform="translate(0,564) scale(1,-1)" fill="#ffffff" opacity="1.0" layer="TOPOVERLAY">Note: For Switching Frequency</text>
      <text x="78" y="1887" font-family="Arial" font-style="normal" font-weight="normal" font-size="68" transform="translate(0,3774) scale(1,-1)" fill="#ffffff" opacity="1.0" layer="TOPOVERLAY">Design Rule: Min. Clearence 10mil</text>
      <text x="588" y="1817" font-family="Arial" font-style="normal" font-weight="normal" font-size="68" transform="translate(0,3634) scale(1,-1)" fill="#ffffff" opacity="1.0" layer="TOPOVERLAY">Min. Track width 10mil</text>
      <circle net="0" cx="1072" cy="887" r="8" r1="11" r2="5" stroke-width="6" stroke="#ff9900" fill="#ffffff" opacity="1" layer="MULTILAYER" />
      <circle net="0" cx="1072" cy="869" r="8" r1="11" r2="5" stroke-width="6" stroke="#ff9900" fill="#ffffff" opacity="1" layer="MULTILAYER" />
      <circle net="0" cx="1003" cy="958" r="8" r1="11" r2="5" stroke-width="6" stroke="#ff9900" fill="#ffffff" opacity="1" layer="MULTILAYER" />
      <circle net="3" cx="1073" cy="973" r="8" r1="11" r2="5" stroke-width="6" stroke="#ff9900" fill="#ffffff" opacity="1" layer="MULTILAYER" />
      <circle net="0" cx="1158" cy="1211" r="8" r1="11" r2="5" stroke-width="6" stroke="#ff9900" fill="#ffffff" opacity="1" layer="MULTILAYER" />
      <circle net="0" cx="1158" cy="1176" r="8" r1="11" r2="5" stroke-width="6" stroke="#ff9900" fill="#ffffff" opacity="1" layer="MULTILAYER" />
      <circle net="0" cx="1218" cy="1176" r="8" r1="11" r2="5" stroke-width="6" stroke="#ff9900" fill="#ffffff" opacity="1" layer="MULTILAYER" />
      <circle net="0" cx="1248" cy="1176" r="8" r1="11" r2="5" stroke-width="6" stroke="#ff9900" fill="#ffffff" opacity="1" layer="MULTILAYER" />
      <circle net="0" cx="1308" cy="1176" r="8" r1="11" r2="5" stroke-width="6" stroke="#ff9900" fill="#ffffff" opacity="1" layer="MULTILAYER" />
      <circle net="0" cx="1338" cy="1176" r="8" r1="11" r2="5" stroke-width="6" stroke="#ff9900" fill="#ffffff" opacity="1" layer="MULTILAYER" />
      <circle net="0" cx="1398" cy="1176" r="8" r1="11" r2="5" stroke-width="6" stroke="#ff9900" fill="#ffffff" opacity="1" layer="MULTILAYER" />
      <circle net="0" cx="1072" cy="849" r="8" r1="11" r2="5" stroke-width="6" stroke="#ff9900" fill="#ffffff" opacity="1" layer="MULTILAYER" />
      <circle net="0" cx="1158" cy="1241" r="8" r1="11" r2="5" stroke-width="6" stroke="#ff9900" fill="#ffffff" opacity="1" layer="MULTILAYER" />
      <circle net="3" cx="816" cy="1205" r="8" r1="11" r2="5" stroke-width="6" stroke="#ff9900" fill="#ffffff" opacity="1" layer="MULTILAYER" />
      <circle net="0" cx="1034" cy="887" r="8" r1="11" r2="5" stroke-width="6" stroke="#ff9900" fill="#ffffff" opacity="1" layer="MULTILAYER" />
      <circle net="0" cx="1053" cy="887" r="8" r1="11" r2="5" stroke-width="6" stroke="#ff9900" fill="#ffffff" opacity="1" layer="MULTILAYER" />
      <circle net="0" cx="1034" cy="869" r="8" r1="11" r2="5" stroke-width="6" stroke="#ff9900" fill="#ffffff" opacity="1" layer="MULTILAYER" />
      <circle net="0" cx="1053" cy="869" r="8" r1="11" r2="5" stroke-width="6" stroke="#ff9900" fill="#ffffff" opacity="1" layer="MULTILAYER" />
      <circle net="0" cx="1188" cy="1176" r="8" r1="11" r2="5" stroke-width="6" stroke="#ff9900" fill="#ffffff" opacity="1" layer="MULTILAYER" />
      <circle net="0" cx="1278" cy="1176" r="8" r1="11" r2="5" stroke-width="6" stroke="#ff9900" fill="#ffffff" opacity="1" layer="MULTILAYER" />
      <circle net="0" cx="1053" cy="849" r="8" r1="11" r2="5" stroke-width="6" stroke="#ff9900" fill="#ffffff" opacity="1" layer="MULTILAYER" />
      <circle net="0" cx="1034" cy="849" r="8" r1="11" r2="5" stroke-width="6" stroke="#ff9900" fill="#ffffff" opacity="1" layer="MULTILAYER" />
      <circle net="3" cx="1098" cy="713" r="8" r1="11" r2="5" stroke-width="6" stroke="#ff9900" fill="#ffffff" opacity="1" layer="MULTILAYER" />
      <circle net="0" cx="1238" cy="598" r="8" r1="11" r2="5" stroke-width="6" stroke="#ff9900" fill="#ffffff" opacity="1" layer="MULTILAYER" />
      <circle net="0" cx="1198" cy="598" r="8" r1="11" r2="5" stroke-width="6" stroke="#ff9900" fill="#ffffff" opacity="1" layer="MULTILAYER" />
      <circle net="3" cx="998" cy="598" r="8" r1="11" r2="5" stroke-width="6" stroke="#ff9900" fill="#ffffff" opacity="1" layer="MULTILAYER" />
      <circle net="0" cx="2063" cy="1123" r="37" r1="43" r2="31" stroke-width="12" stroke="#ff9900" fill="#ffffff" opacity="1" layer="MULTILAYER" />
      <circle net="1" cx="2063" cy="793" r="37" r1="43" r2="31" stroke-width="12" stroke="#ff9900" fill="#ffffff" opacity="1" layer="MULTILAYER" />
      <circle net="0" cx="163" cy="1603" r="37" r1="43" r2="31" stroke-width="12" stroke="#ff9900" fill="#ffffff" opacity="1" layer="MULTILAYER" />
      <circle net="3" cx="163" cy="653" r="37" r1="43" r2="31" stroke-width="12" stroke="#ff9900" fill="#ffffff" opacity="1" layer="MULTILAYER" />
      <circle net="3" cx="1098" cy="418" r="37" r1="43" r2="31" stroke-width="12" stroke="#ff9900" fill="#ffffff" opacity="1" layer="MULTILAYER" />
    </g>

  
<g id="0603">
  <g id="Mask" style="display:none;">
  	<rect style="display:inline;" width="6.4" height="3.2"/>
  	<rect x="1.6" style="display:inline;" width="3.2" height="3.2"/>
  </g>
  <g id="Outline" style="display:none;">
  	<g style="display:inline;">
  		<path d="M6.15,0.25v2.7h-5.9v-2.7H6.15 M6.4,0H0v3.2h6.4V0L6.4,0z"/>
  	</g>
  	<g style="display:inline;">
  		<path d="M4.55,0.25v2.7h-2.7v-2.7H4.55 M4.8,0H1.6v3.2h3.2V0L4.8,0z"/>
  	</g>
  </g>
  <g id="Color">
  	<rect style="fill:#B3B3B3;" width="6.4" height="3.2"/>
  	<rect x="1.6" style="fill:#1A1A1A;" width="3.2" height="3.2"/>
  </g>
</g>
<g id="0402">
  <g id="MASK" display="none">
  	<g display="inline">
  		<rect x="0.125" y="0.125" width="3.752" height="1.757"/>
  		<path d="M3.752,0.25v1.507H0.25V0.25H3.752 M4.002,0H0v2.007h4.002V0L4.002,0z"/>
  	</g>
  </g>
  <g id="COLOR">
  	<rect fill="#CBCBCB" width="4.002" height="2.007"/>
  	<rect x="1.008" fill="#363636" width="1.986" height="2.007"/>
  </g>
  <g id="OUTLINE">
  	<g>
  		<path d="M3.752,0.25v1.507H0.25V0.25H3.752 M4.002,0H0v2.007h4.002V0L4.002,0z"/>
  	</g>
  	<g>
  		<path d="M2.744,0.25v1.507H1.258V0.25H2.744 M2.994,0H1.008v2.007h1.986V0L2.994,0z"/>
  	</g>
  </g>
</g>
<g id="XAL4020">
  <g id="Mask" style="display:none;">
  	<g style="display:inline;">
  		<path d="M14.397,16H1.603C0.721,16,0,15.279,0,14.397V1.603C0,0.721,0.721,0,1.603,0h12.795C15.279,0,16,0.721,16,1.603v12.795
  			C16,15.279,15.279,16,14.397,16z"/>
  	</g>
  </g>
  <g id="Online" style="display:none;">
  	<g style="display:inline;">
  		<path d="M14.397,0.25c0.746,0,1.353,0.607,1.353,1.353v12.795c0,0.746-0.607,1.353-1.353,1.353H1.603
  			c-0.746,0-1.353-0.607-1.353-1.353V1.603c0-0.746,0.607-1.353,1.353-1.353H14.397 M14.397,0H1.603C0.721,0,0,0.721,0,1.603v12.795
  			C0,15.279,0.721,16,1.603,16h12.795C15.279,16,16,15.279,16,14.397V1.603C16,0.721,15.279,0,14.397,0L14.397,0z"/>
  	</g>
  </g>
  <g id="Color">
  	<g>
  		<path style="fill:#333333;" d="M14.397,16H1.603C0.721,16,0,15.279,0,14.397V1.603C0,0.721,0.721,0,1.603,0h12.795
  			C15.279,0,16,0.721,16,1.603v12.795C16,15.279,15.279,16,14.397,16z"/>
  	</g>
  </g>
</g>
<g id="S-PVQFN-N16">
  <g id="Mask" display="none">
  	<rect x="0.5" y="0.5" display="inline" stroke="#000000" width="16" height="16"/>
  </g>
  <g id="Color">
  	<rect x="0.5" y="0.5" fill="#404040" stroke="#000000" width="16" height="16"/>
  	<circle fill="none" stroke="#000000" cx="2.304" cy="2.383" r="0.392"/>
  </g>
  <g id="Outline" display="none">
  	<rect x="0.5" y="0.5" display="inline" fill="none" stroke="#000000" width="16" height="16"/>
  	<circle display="inline" fill="none" stroke="#000000" cx="2.304" cy="2.383" r="0.392"/>
  </g>
</g>
</defs>
<g id="board">
  <use x="0" y="0" width="224.0" height="203.0" xlink:href="#boardtop" />
  <use x="0" y="0" width="224.0" height="203.0" xlink:href="#boardtopoverlay" />
  <g id="topview_images">
    <use x="119.0" y="102.0" width="6.0" height="3.0" transform="rotate(-90.0 122.0 103.0)" name="0_Cin_0603" xlink:href="#0603" />
    <use x="131.0" y="131.0" width="6.0" height="3.0" transform="rotate(-270.0 134.0 132.0)" name="3_Cinx_0603" xlink:href="#0603" />
    <use x="96.0" y="94.0" width="6.0" height="3.0" name="1_Cout_0603" xlink:href="#0603" />
    <use x="121.0" y="133.0" width="4.0" height="2.0" transform="rotate(-270.0 123.0 134.0)" name="4_Css_0402" xlink:href="#0402" />
    <rect x="206.0" y="86.0" width="6.0" height="6.0" transform="rotate(-180.0 209.0 89.0)" name="9_GND_TP-1502" style="fill:white;stroke:black;stroke-width:1;" />
    <rect x="13.0" y="37.0" width="6.0" height="6.0" transform="rotate(-180.0 16.0 41.0)" name="7_GND1_TP-1502" style="fill:white;stroke:black;stroke-width:1;" />
    <use x="70.0" y="91.0" width="16.0" height="16.0" transform="rotate(-90.0 78.0 99.0)" name="11_L1_XAL4020" xlink:href="#XAL4020" />
    <use x="99.0" y="133.0" width="4.0" height="2.0" transform="rotate(-90.0 101.0 134.0)" name="2_Rpg_0402" xlink:href="#0402" />
    <rect x="108.0" y="158.0" width="6.0" height="6.0" transform="rotate(-180.0 111.0 161.0)" name="10_TP_FSW_TP-1502" style="fill:white;stroke:black;stroke-width:1;" />
    <use x="98.0" y="107.0" width="17.0" height="17.0" name="5_U1_S-PVQFN-N16" xlink:href="#S-PVQFN-N16" />
    <rect x="206.0" y="120.0" width="6.0" height="6.0" transform="rotate(-180.0 209.0 123.0)" name="8_Vin_TP-1502" style="fill:white;stroke:black;stroke-width:1;" />
    <rect x="13.0" y="134.0" width="6.0" height="6.0" transform="rotate(-180.0 16.0 137.0)" name="6_Vout_TP-1502" style="fill:white;stroke:black;stroke-width:1;" />
  </g>
</g>
</svg>
